<?xml version="1.0" standalone="no"?><svg xmlns="http://www.w3.org/2000/svg" viewBox="0 0 1440 320"><path fill="#0099ff" fill-opacity="1" d="M0,128L34.3,144C68.6,160,137,192,206,170.7C274.3,149,343,75,411,80C480,85,549,171,617,213.3C685.7,256,754,256,823,224C891.4,192,960,128,1029,122.7C1097.1,117,1166,171,1234,208C1302.9,245,1371,267,1406,277.3L1440,288L1440,0L1405.7,0C1371.4,0,1303,0,1234,0C1165.7,0,1097,0,1029,0C960,0,891,0,823,0C754.3,0,686,0,617,0C548.6,0,480,0,411,0C342.9,0,274,0,206,0C137.1,0,69,0,34,0L0,0Z"></path></svg>